<svg xmlns="http://www.w3.org/2000/svg" width="37" height="37" viewBox="0 0 37 37" fill="none">
<path d="M22.2948 8.08598C22.2948 8.08598 10.4351 1.20983 4.17831 6.89669C3.98502 7.1386 3.95991 7.48437 4.13061 7.75161C4.19337 7.85294 5.74721 10.267 9.46113 10.267C11.3162 10.267 12.7922 9.37154 14.2181 8.50268C15.5974 7.66422 16.8952 6.87135 18.5056 6.87135C19.9075 6.87135 21.0911 7.42611 22.296 8.08598" fill="#A8A9CF"/>
<path d="M4.17822 6.89516C7.70638 2.51286 12.9302 0 18.5042 0C24.0782 0 29.2958 2.51286 32.824 6.89516C33.0348 7.15733 33.0398 7.53097 32.8365 7.80075C32.7687 7.88941 31.112 10.0362 27.5436 10.0362C25.7664 10.0362 24.3004 9.21169 22.8896 8.41376C22.6901 8.3023 22.4918 8.19085 22.2947 8.08319C22.2947 8.08319 10.435 1.20703 4.17822 6.89389" fill="#6B47F5"/>
<path d="M35.7725 11.912C35.6621 11.622 35.3771 11.4282 35.0634 11.4421C34.9454 11.4459 32.0962 11.5966 30.2387 14.8428C29.3111 16.464 29.3412 18.2017 29.3751 19.8825C29.4053 21.5075 29.4354 23.0375 28.6308 24.4446C27.9305 25.6694 26.8624 26.4281 25.6938 27.15C25.7039 27.1437 37.5247 20.2206 35.7712 11.912" fill="#A8A9CF"/>
<path d="M35.7724 11.9114C37.7693 17.1866 37.3137 23.0078 34.5273 27.879C31.7434 32.7451 26.9752 36.0533 21.4502 36.945C21.1201 36.9982 20.7962 36.8158 20.6657 36.503C20.6243 36.3991 19.6089 33.8786 21.3937 30.7591C22.2823 29.205 23.7219 28.3375 25.1126 27.5028C25.3084 27.3837 25.503 27.2659 25.695 27.1481C25.695 27.1481 37.5271 20.2213 35.7736 11.9102" fill="#6B47F5"/>
<path d="M15.8033 30.6861C14.8758 29.0649 13.3696 28.2227 11.9099 27.4121C10.5004 26.6255 9.1712 25.8871 8.36667 24.4812C7.66505 23.2565 7.54958 21.9443 7.51318 20.5625C7.51318 20.5663 7.54205 34.3655 15.551 36.9885C15.856 37.0367 16.1648 36.8847 16.3091 36.6035C16.3656 36.4984 17.6596 33.9336 15.8033 30.6874" fill="#A8A9CF"/>
<path d="M15.5509 36.9897C10.0259 36.0968 5.25764 32.7886 2.47001 27.9174C-0.313862 23.0512 -0.76822 17.2301 1.22743 11.9549C1.34667 11.6395 1.66547 11.4483 1.99808 11.4901C2.10853 11.5053 4.77818 11.8789 6.56297 14.9972C7.4516 16.5513 7.47796 18.2434 7.49804 19.876C7.50181 20.1065 7.50557 20.3345 7.51184 20.5612C7.51184 20.5612 7.54071 34.3642 15.5497 36.9872" fill="#6B47F5"/>
</svg>
