<svg xmlns="http://www.w3.org/2000/svg" width="800px" height="800px" viewBox="0 -9 58 58" fill="none">
<rect x="0.5" y="0.5" width="57" height="39" rx="3.5" fill="white" stroke="#F3F3F3"/>
<path fill-rule="evenodd" clip-rule="evenodd" d="M21.2489 30.8906V32.3674V33.8443H20.6016V33.4857C20.3963 33.7517 20.0848 33.9186 19.6614 33.9186C18.8266 33.9186 18.1722 33.27 18.1722 32.3674C18.1722 31.4656 18.8266 30.8163 19.6614 30.8163C20.0848 30.8163 20.3963 30.9832 20.6016 31.2492V30.8906H21.2489ZM19.7419 31.4218C19.1816 31.4218 18.8387 31.8483 18.8387 32.3674C18.8387 32.8866 19.1816 33.3131 19.7419 33.3131C20.2773 33.3131 20.6387 32.905 20.6387 32.3674C20.6387 31.8299 20.27 31.4218 19.7419 31.4218ZM24.8547 32.7372C24.8547 32.5697 24.7421 32.4587 24.4868 32.3988L24.0577 32.3023C23.4854 32.1721 23.1915 31.9066 23.1915 31.4808C23.1915 30.9943 23.6141 30.8163 24.103 30.8163C24.5296 30.8163 24.9685 30.9438 25.2619 31.1733L24.9869 31.6111C24.761 31.434 24.4183 31.3072 24.1219 31.3072C23.854 31.3072 23.7164 31.3883 23.7164 31.5304C23.7164 31.6722 23.8346 31.7604 24.1022 31.8207L24.5191 31.9115C25.1107 32.0417 25.3796 32.295 25.3796 32.7327C25.3796 33.2003 25.0054 33.5072 24.3081 33.5072C23.8352 33.5072 23.3805 33.3324 23.0781 33.0666L23.3532 32.6281C23.6101 32.8506 23.9402 33.0163 24.3081 33.0163C24.6572 33.0163 24.8547 32.923 24.8547 32.7372ZM27.1927 31.3954V30.8906H26.5461V31.3954H26.1484V31.9422H26.5461V32.9294C26.5461 33.3559 26.7953 33.5072 27.1928 33.5072C27.3857 33.5072 27.5356 33.4635 27.6661 33.4012L27.5417 32.9109C27.4729 32.9424 27.3795 32.9671 27.2862 32.9671C27.1245 32.9671 27.0625 32.8861 27.0625 32.7192V31.9422H27.5728V31.3954H27.1927ZM30.3927 32.4021C30.3927 32.9294 29.9451 33.5072 29.1719 33.5072C28.5621 33.5072 28.0952 33.1492 28.0952 32.4268V30.8906H28.6805V32.4268C28.6805 32.7988 28.8856 33.0287 29.2534 33.0287C29.6152 33.0287 29.8074 32.8047 29.8074 32.4268V30.8906H30.3927V32.4021ZM32.7562 30.8906H33.3591V33.4262C33.3591 34.1308 32.8679 34.4371 32.2208 34.4371C31.7854 34.4371 31.3905 34.3102 31.1025 34.0501L31.3775 33.5989C31.5907 33.788 31.8648 33.9028 32.1453 33.9463C32.5314 33.9463 32.7739 33.7294 32.7739 33.3948V33.1558C32.5687 33.422 32.2571 33.5072 31.8332 33.5072C31.011 33.5072 30.3564 32.9584 30.3564 32.1622C30.3564 31.366 31.0109 30.8163 31.8332 30.8163C32.2567 30.8163 32.5682 30.9021 32.7739 31.168V30.8906H32.7562ZM31.9145 31.4218C31.3603 31.4218 30.9611 31.782 30.9611 32.1618C30.9611 32.5409 31.3603 32.9011 31.9145 32.9011C32.4442 32.9011 32.8117 32.5409 32.8117 32.1618C32.8056 31.782 32.4442 31.4218 31.9145 31.4218ZM35.6939 30.8163C35.0959 30.8163 34.6476 31.0334 34.4238 31.405L34.8034 31.8315C34.9719 31.5593 35.2656 31.3954 35.5896 31.4033C35.9946 31.4033 36.2134 31.6263 36.2134 32.0031V32.0766H35.6082C34.8474 32.0766 34.4238 32.3861 34.4238 32.8622C34.4238 33.3139 34.8165 33.5072 35.2523 33.5072C35.6455 33.5072 35.9514 33.3946 36.1756 33.1182V33.4263H36.7923V32.0339C36.7923 31.2876 36.3939 30.8163 35.6939 30.8163ZM35.3574 33.0103C35.1151 33.0103 34.9595 32.9046 34.9595 32.7192C34.9595 32.4957 35.1773 32.3611 35.5702 32.3611H36.2197V32.5349C36.2197 32.8377 35.8331 33.0103 35.3574 33.0103ZM38.9239 30.8906L38.2691 32.8802L37.6144 30.8906H37.0107L37.9764 33.4635H38.5562L39.5275 30.8906H38.9239ZM40.2167 33.4635V30.8906H40.802V33.4635H40.2167ZM40.5128 29.9254C40.7059 29.9254 40.8621 30.0808 40.8621 30.2724C40.8621 30.464 40.7059 30.6194 40.5128 30.6194C40.3196 30.6194 40.1635 30.464 40.1635 30.2724C40.1635 30.0808 40.3197 29.9254 40.5128 29.9254Z" fill="#231F20"/>
<path d="M34.0465 25.8715H24.2359V8.3783H34.0465V25.8715Z" fill="#FF5F00"/>
<path d="M24.8583 17.1253C24.8583 13.5767 26.5328 10.4157 29.1405 8.37867C27.2336 6.88907 24.8269 5.99998 22.2114 5.99998C16.0194 5.99998 11 10.9809 11 17.1253C11 23.2697 16.0194 28.2506 22.2114 28.2506C24.8269 28.2506 27.2336 27.3615 29.1405 25.8719C26.5328 23.8349 24.8583 20.6739 24.8583 17.1253" fill="#EB001B"/>
<path d="M47.2818 17.1253C47.2818 23.2697 42.2624 28.2506 36.0704 28.2506C33.4548 28.2506 31.0482 27.3615 29.1405 25.8719C31.7489 23.8349 33.4235 20.6739 33.4235 17.1253C33.4235 13.5767 31.7489 10.4157 29.1405 8.37867C31.0482 6.88907 33.4548 5.99998 36.0704 5.99998C42.2624 5.99998 47.2818 10.9809 47.2818 17.1253" fill="#F79E1B"/>
</svg>
