<svg xmlns="http://www.w3.org/2000/svg" width="750" height="471" viewBox="0 0 750 471" version="1.1">
  <g id="Page-1" stroke="none" stroke-width="1" fill="none" fill-rule="evenodd">
    <g id="visa" fill-rule="nonzero">
      <rect id="Rectangle-1" fill="#0E4595" x="0" y="0" width="750" height="471" rx="40"/>
      <polygon id="Shape" fill="#FFFFFF" points="278.1975 334.2275 311.5585 138.4655 364.9175 138.4655 331.5335 334.2275"/>
      <path d="M524.3075,142.6875 C513.7355,138.7215 497.1715,134.4655 476.4845,134.4655 C423.7605,134.4655 386.6205,161.0165 386.3045,199.0695 C386.0075,227.1985 412.8185,242.8905 433.0585,252.2545 C453.8275,261.8495 460.8105,267.9695 460.7115,276.5375 C460.5795,289.6595 444.1255,295.6545 428.7885,295.6545 C407.4315,295.6545 396.0855,292.6875 378.5625,285.3785 L371.6865,282.2665 L364.1975,326.0905 C376.6605,331.5545 399.7065,336.2895 423.6355,336.5345 C479.7245,336.5345 516.1365,310.2875 516.5765,270.0655 C516.7535,248.0695 502.5765,231.3305 471.4055,217.4535 C452.8385,208.4525 441.5385,202.3425 441.6525,193.1295 C441.6525,184.9185 451.2535,176.1295 471.9405,176.1295 C489.1555,175.8455 501.9145,179.6875 511.8625,183.5295 L516.5765,185.7295 L524.3075,142.6875" id="path12" fill="#FFFFFF"/>
      <path d="M661.6145,138.4655 L620.3835,138.4655 C607.6105,138.4655 598.0525,141.9515 592.4425,154.6995 L513.1975,334.1025 L569.2285,334.1025 C569.2285,334.1025 578.3905,309.9805 580.4625,304.6845 C586.5855,304.6845 641.0165,304.7685 648.7985,304.7685 C650.3945,311.6215 655.2905,334.1025 655.2905,334.1025 L704.8025,334.1025 L661.6145,138.4655 Z M596.1975,264.8725 C600.6105,253.5935 617.4565,210.1495 617.4565,210.1495 C617.1415,210.6705 621.8365,198.8155 624.5315,191.4655 L628.2975,208.4655 C628.2975,208.4655 638.8035,255.5155 640.9525,264.8725 L596.1975,264.8725 Z" id="Shape" fill="#FFFFFF"/>
      <path d="M 45.878906 138.46484 L 45.197266 142.53906 C 66.288263 147.64458 85.126465 155.03257 101.61914 164.22461 L 148.96484 333.91602 L 205.41992 333.84961 L 289.42383 138.46484 L 232.90234 138.46484 L 180.66211 271.96094 L 175.0957 244.83203 C 174.83824 244.00408 174.55942 243.17304 174.27344 242.3418 L 156.10742 154.99219 C 152.87742 142.59619 143.50892 138.89684 131.91992 138.46484 L 45.878906 138.46484 z " id="path16" style="fill:#ffffff;fill-opacity:1"/>
    </g>
  </g>
</svg>
